<?xml version="1.0" encoding="UTF-8" standalone="no"?>
<!-- Created with Inkscape (http://www.inkscape.org/) -->

<svg
   width="48"
   height="48"
   viewBox="0 0 12.7 12.7"
   version="1.1"
   id="svg1"
   inkscape:version="1.4.2 (ebf0e940d0, 2025-05-08)"
   sodipodi:docname="manual_entry.svg"
   xmlns:inkscape="http://www.inkscape.org/namespaces/inkscape"
   xmlns:sodipodi="http://sodipodi.sourceforge.net/DTD/sodipodi-0.dtd"
   xmlns="http://www.w3.org/2000/svg"
   xmlns:svg="http://www.w3.org/2000/svg">
  <sodipodi:namedview
     id="namedview1"
     pagecolor="#ffffff"
     bordercolor="#666666"
     borderopacity="1.0"
     inkscape:showpageshadow="2"
     inkscape:pageopacity="0.0"
     inkscape:pagecheckerboard="0"
     inkscape:deskcolor="#d1d1d1"
     inkscape:document-units="px"
     showgrid="true"
     inkscape:zoom="12.015825"
     inkscape:cx="1.7476952"
     inkscape:cy="25.09191"
     inkscape:window-width="1920"
     inkscape:window-height="1020"
     inkscape:window-x="0"
     inkscape:window-y="0"
     inkscape:window-maximized="1"
     inkscape:current-layer="layer1">
    <inkscape:grid
       id="grid5"
       units="px"
       originx="0"
       originy="0"
       spacingx="0.26458334"
       spacingy="0.26458334"
       empcolor="#3f3fff"
       empopacity="0.25098039"
       color="#3f3fff"
       opacity="0.1254902"
       empspacing="8"
       enabled="true"
       visible="true" />
  </sodipodi:namedview>
  <defs
     id="defs1" />
  <g
     inkscape:label="Layer 1"
     inkscape:groupmode="layer"
     id="layer1">
    <g
       id="g6"
       transform="translate(0,-1.1906257)">
      <path
         style="fill:#000000;fill-rule:evenodd;stroke:none;stroke-width:0.79375;stroke-linecap:round;stroke-linejoin:round;stroke-miterlimit:0"
         id="path5"
         sodipodi:type="arc"
         sodipodi:cx="2.1166668"
         sodipodi:cy="-5.4239593"
         sodipodi:rx="0.79375005"
         sodipodi:ry="0.79375005"
         sodipodi:start="3.0693514"
         sodipodi:end="3.0589694"
         sodipodi:open="true"
         sodipodi:arc-type="arc"
         d="m 1.3249871,-5.3666676 a 0.79375005,0.79375005 0 0 1 0.7323334,-0.84882 0.79375005,0.79375005 0 0 1 0.850718,0.7301279 0.79375005,0.79375005 0 0 1 -0.7279175,0.8526101 0.79375005,0.79375005 0 0 1 -0.8544965,-0.725702"
         transform="scale(1,-1)" />
      <path
         style="fill:#000000;fill-rule:evenodd;stroke:none;stroke-width:0.79375;stroke-linecap:round;stroke-linejoin:round;stroke-miterlimit:0"
         id="path5-3"
         sodipodi:type="arc"
         sodipodi:cx="4.938889"
         sodipodi:cy="-5.4239593"
         sodipodi:rx="0.79375005"
         sodipodi:ry="0.79375005"
         sodipodi:start="3.0693514"
         sodipodi:end="3.0589694"
         sodipodi:open="true"
         sodipodi:arc-type="arc"
         d="m 4.1472093,-5.3666676 a 0.79375005,0.79375005 0 0 1 0.7323335,-0.84882 0.79375005,0.79375005 0 0 1 0.8507179,0.7301279 0.79375005,0.79375005 0 0 1 -0.7279174,0.8526101 0.79375005,0.79375005 0 0 1 -0.8544966,-0.725702"
         transform="scale(1,-1)" />
      <path
         style="fill:#000000;fill-rule:evenodd;stroke:none;stroke-width:0.793751;stroke-linecap:round;stroke-linejoin:round;stroke-miterlimit:0"
         id="path5-1"
         sodipodi:type="arc"
         sodipodi:cx="7.7611117"
         sodipodi:cy="-5.4239593"
         sodipodi:rx="0.79375005"
         sodipodi:ry="0.79375005"
         sodipodi:start="3.0693514"
         sodipodi:end="3.0589694"
         sodipodi:open="true"
         sodipodi:arc-type="arc"
         d="m 6.969432,-5.3666676 a 0.79375005,0.79375005 0 0 1 0.7323335,-0.84882 0.79375005,0.79375005 0 0 1 0.8507179,0.7301279 0.79375005,0.79375005 0 0 1 -0.7279174,0.8526101 0.79375005,0.79375005 0 0 1 -0.8544965,-0.725702"
         transform="scale(1,-1)" />
      <path
         style="fill:#000000;fill-rule:evenodd;stroke:none;stroke-width:0.793751;stroke-linecap:round;stroke-linejoin:round;stroke-miterlimit:0"
         id="path5-36"
         sodipodi:type="arc"
         sodipodi:cx="10.583334"
         sodipodi:cy="-5.4239593"
         sodipodi:rx="0.79374999"
         sodipodi:ry="0.79374999"
         sodipodi:start="3.0693514"
         sodipodi:end="3.0589694"
         sodipodi:open="true"
         sodipodi:arc-type="arc"
         d="m 9.7916543,-5.3666676 a 0.79374999,0.79374999 0 0 1 0.7323337,-0.84882 0.79374999,0.79374999 0 0 1 0.850718,0.7301279 0.79374999,0.79374999 0 0 1 -0.727918,0.85261 0.79374999,0.79374999 0 0 1 -0.8544963,-0.7257019"
         transform="scale(1,-1)" />
    </g>
    <path
       style="fill:none;stroke:#000000;stroke-width:1.05833;stroke-linecap:round;stroke-linejoin:miter;stroke-dasharray:none;stroke-opacity:1"
       d="M 2.1166668,8.4666672 H 10.583334"
       id="path6" />
  </g>
</svg>
